# xmcd
#
# Track frame offsets: 
#        150
#        13513
#        25334
#        38966
#        50644
#        63399
#        74254
#        87054
#        98244
#        109174
#        127443
#        145003
#        158477
#        165971
#
# Disc length: 2379 seconds
#
# Revision: 0
# Processed by: cddbd v1.5.2PL0 Copyright (c) Steve Scherf et al.
# Submitted via: ExactAudioCopy v1.0b4
#
DISCID=b709490e
DTITLE=Doctor Ross - Memphis Breakdown
DYEAR=2017
DGENRE=Blues
TTITLE0=Chicago Breakdown
TTITLE1=Boogie Disease
TTITLE2=Polly Put Your Kettle On
TTITLE3=Juke Box Boogie
TTITLE4=Terra Mae
TTITLE5=Feel So Sad
TTITLE6=Texas Hop
TTITLE7=That's Alright
TTITLE8=Cat Squirrel
TTITLE9=Industrial Boogie
TTITLE10=Left Job Boogie
TTITLE11=That Ain't Right
TTITLE12=1953 Jump
TTITLE13=Come Back Baby
EXTD=
EXTT0=
EXTT1=
EXTT2=
EXTT3=
EXTT4=
EXTT5=
EXTT6=
EXTT7=
EXTT8=
EXTT9=
EXTT10=
EXTT11=
EXTT12=
EXTT13=
PLAYORDER=
